<svg width="48" height="48" viewBox="0 0 48 48" fill="none" xmlns="http://www.w3.org/2000/svg">
    <circle cx="24" cy="24" r="24" fill="#FBEAE5"/>
    <path d="M26.0625 25L29.1875 21.875C29.5938 21.5 29.5938 20.875 29.1875 20.5L28.5 19.8125C28.125 19.4062 27.5 19.4062 27.125 19.8125L24 22.9375L20.8438 19.8125C20.4688 19.4062 19.8438 19.4062 19.4688 19.8125L18.7812 20.5C18.375 20.875 18.375 21.5 18.7812 21.875L21.9062 25L18.7812 28.1562C18.375 28.5312 18.375 29.1562 18.7812 29.5312L19.4688 30.2188C19.8438 30.625 20.4688 30.625 20.8438 30.2188L24 27.0938L27.125 30.2188C27.5 30.625 28.125 30.625 28.5 30.2188L29.1875 29.5312C29.5938 29.1562 29.5938 28.5312 29.1875 28.1562L26.0625 25Z" fill="#FF4848"/>
</svg>
